<?xml version="1.0" standalone="no"?>
<!DOCTYPE svg PUBLIC "-//W3C//DTD SVG 20010904//EN"
 "http://www.w3.org/TR/2001/REC-SVG-20010904/DTD/svg10.dtd">
<svg version="1.0" xmlns="http://www.w3.org/2000/svg"
 width="1164.000000pt" height="1164.000000pt" viewBox="0 0 1164.000000 1164.000000"
 preserveAspectRatio="xMidYMid meet">
<metadata>
Created by potrace 1.14, written by Peter Selinger 2001-2017
</metadata>
<g transform="translate(0.000000,1164.000000) scale(0.100000,-0.100000)"
fill="#000000" stroke="none">
<path d="M5693 8728 c-14 -26 -31 -49 -37 -50 -6 0 -25 -2 -43 -3 -25 -1 -42
-12 -77 -51 -43 -46 -46 -53 -46 -105 0 -83 -16 -94 -139 -94 -94 -1 -97 -2
-168 -43 -42 -25 -108 -78 -157 -127 -61 -61 -103 -93 -150 -115 -55 -26 -179
-108 -196 -129 -9 -11 -233 -158 -281 -184 -25 -14 -78 -48 -118 -76 -39 -28
-73 -51 -75 -51 -12 0 -148 -86 -276 -176 -80 -55 -190 -123 -244 -150 -88
-43 -103 -55 -135 -102 -26 -41 -48 -60 -86 -78 -27 -13 -70 -42 -95 -64 -48
-44 -119 -93 -189 -131 -24 -13 -74 -53 -110 -89 -134 -131 -203 -188 -288
-240 -88 -54 -99 -61 -131 -90 -36 -33 -108 -86 -134 -99 -16 -8 -28 -18 -28
-23 0 -4 -6 -8 -14 -8 -8 0 -21 -6 -28 -13 -22 -21 -198 -128 -198 -120 0 5
-4 4 -8 -2 -14 -19 -148 -83 -242 -116 -52 -18 -111 -41 -130 -52 -19 -11 -69
-37 -110 -59 -63 -34 -114 -67 -175 -115 -5 -5 -41 -30 -80 -57 -38 -27 -74
-54 -80 -60 -5 -6 -27 -22 -47 -36 -21 -14 -38 -28 -38 -32 0 -5 -6 -8 -14 -8
-8 0 -16 -4 -18 -8 -1 -5 -31 -29 -65 -54 -34 -25 -68 -52 -76 -59 -8 -8 -26
-23 -41 -34 -15 -11 -38 -29 -50 -40 -28 -24 -54 -46 -126 -105 -30 -25 -57
-47 -60 -50 -3 -3 -57 -45 -120 -92 -63 -48 -129 -100 -146 -117 -47 -45 -115
-86 -389 -236 -47 -25 -181 -106 -196 -118 -26 -20 -38 -52 -34 -86 5 -39 19
-58 54 -75 32 -15 44 -14 151 12 47 12 101 23 120 26 19 3 46 8 60 10 73 13
139 23 200 30 25 3 54 7 65 10 11 2 49 7 85 11 36 4 74 9 85 11 11 2 44 6 75
9 30 3 75 7 100 10 25 3 72 7 105 10 33 3 85 8 115 11 30 3 82 7 115 9 57 4
184 13 270 20 22 2 105 7 185 10 80 4 149 10 154 13 5 3 6 0 3 -5 -4 -6 -31
-17 -59 -23 -29 -7 -58 -16 -64 -21 -6 -5 -19 -10 -30 -12 -10 -2 -26 -7 -34
-10 -8 -3 -42 -15 -75 -27 -67 -24 -179 -67 -210 -80 -11 -5 -42 -18 -70 -30
-27 -12 -54 -23 -60 -24 -10 -3 -77 -32 -150 -66 -106 -49 -156 -70 -165 -70
-6 0 -10 -4 -10 -10 0 -5 -3 -9 -7 -8 -17 5 -457 -212 -514 -252 -15 -11 -31
-20 -36 -20 -4 0 -25 -11 -46 -25 -20 -14 -37 -23 -37 -20 0 4 -12 -2 -27 -13
-16 -11 -59 -36 -98 -57 -38 -21 -81 -45 -95 -54 -14 -9 -42 -26 -63 -36 -62
-33 -92 -70 -92 -117 0 -34 6 -45 34 -68 36 -31 61 -32 141 -9 54 15 55 15
105 23 35 6 105 18 170 30 11 2 42 7 68 10 27 4 56 9 65 10 10 2 44 7 77 11
32 4 68 9 80 11 11 2 49 6 85 9 36 3 75 7 87 9 12 3 54 7 95 11 40 4 89 8 108
10 19 2 71 6 115 10 44 3 96 8 115 10 19 2 82 6 140 10 58 3 121 8 140 10 117
15 631 26 688 14 18 -4 32 -3 32 3 0 5 4 7 8 4 5 -3 58 -8 118 -11 133 -6 230
-13 309 -21 33 -3 76 -7 96 -9 53 -5 162 -17 179 -20 8 -2 44 -6 80 -10 36 -4
74 -9 85 -11 11 -2 36 -6 55 -9 19 -3 49 -7 65 -9 17 -2 57 -9 90 -15 33 -6
78 -13 100 -16 22 -4 47 -8 55 -10 14 -4 63 -13 105 -20 11 -2 45 -8 75 -15
30 -6 66 -14 80 -16 22 -5 176 -37 234 -50 11 -3 32 -7 46 -10 56 -11 427
-106 450 -114 14 -6 34 -11 45 -13 11 -2 27 -6 35 -9 8 -3 31 -10 50 -16 87
-26 313 -97 395 -124 49 -17 94 -31 100 -33 5 -1 18 -5 28 -8 9 -4 25 -10 35
-14 9 -3 22 -7 27 -8 33 -8 300 -101 410 -143 72 -27 168 -61 215 -76 47 -15
94 -31 105 -36 11 -5 40 -14 65 -21 25 -6 50 -15 56 -20 7 -5 16 -9 20 -8 5 1
12 0 17 -1 4 -1 12 -4 17 -5 6 -1 11 -3 13 -5 1 -1 9 -3 17 -5 8 -1 48 -13 89
-25 41 -12 82 -24 92 -26 11 -2 28 -6 39 -9 11 -3 29 -7 40 -10 11 -3 29 -7
40 -10 11 -3 29 -7 40 -10 11 -3 30 -7 43 -10 12 -2 42 -9 67 -14 56 -12 202
-39 254 -47 21 -3 48 -8 60 -10 11 -3 37 -7 56 -9 19 -3 46 -7 60 -10 14 -2
44 -7 68 -10 23 -3 61 -8 85 -11 61 -9 125 -16 283 -29 266 -23 638 -19 909
11 28 2 66 7 85 9 64 6 135 16 160 21 14 3 39 7 55 8 26 3 138 23 227 41 155
30 553 146 653 189 17 8 53 22 80 32 28 10 61 24 74 31 14 6 28 10 33 7 4 -3
8 0 8 5 0 6 5 11 10 11 6 0 30 9 52 20 23 11 48 20 55 20 7 0 13 5 13 10 0 6
5 10 11 10 16 0 160 70 182 88 9 8 17 12 17 8 0 -4 15 1 33 12 17 11 52 32 77
46 87 48 106 60 235 140 72 44 132 83 135 86 3 3 30 21 60 40 30 19 57 37 60
40 3 3 25 18 50 35 104 69 307 224 454 348 246 208 336 288 348 310 17 33 18
60 1 94 -26 55 -94 69 -162 34 -74 -38 -61 -34 -351 -117 -47 -14 -92 -26
-100 -28 -8 -2 -35 -9 -60 -16 -25 -7 -55 -14 -67 -16 -12 -2 -34 -9 -48 -14
-14 -5 -25 -7 -25 -4 0 4 -6 1 -13 -5 -8 -6 -16 -8 -19 -6 -3 3 -17 1 -31 -4
-14 -5 -60 -17 -104 -26 -43 -9 -85 -18 -93 -20 -81 -20 -355 -75 -371 -75
-11 0 14 18 56 40 42 22 101 56 131 75 30 19 57 35 59 35 6 0 318 199 340 217
6 4 63 46 128 91 65 46 126 90 135 97 9 8 55 44 102 82 47 37 90 72 96 78 6 5
27 24 48 40 21 17 48 39 60 50 12 11 46 40 76 65 193 163 235 210 226 257 -17
85 -87 108 -182 60 -47 -24 -319 -110 -390 -123 -22 -4 -45 -1 -67 9 -18 9
-71 33 -118 53 -46 20 -100 43 -119 52 -19 9 -38 15 -42 14 -3 -1 -12 5 -18
13 -7 8 -17 15 -22 15 -5 0 -59 35 -121 78 -106 75 -181 122 -326 206 -51 30
-153 106 -181 136 -3 3 -18 16 -35 29 -26 19 -165 148 -279 257 -52 49 -309
186 -489 260 -108 45 -126 56 -200 126 -110 103 -114 106 -177 158 -30 25 -57
48 -60 51 -6 8 -139 99 -144 99 -2 0 -49 29 -105 64 -66 42 -135 98 -204 166
-84 83 -121 112 -198 152 -79 42 -181 114 -240 170 -8 7 -41 31 -74 53 -33 22
-64 43 -70 48 -5 4 -44 31 -85 59 -41 29 -79 56 -85 60 -55 45 -145 106 -165
112 -14 4 -49 14 -79 22 -29 8 -67 26 -83 39 -16 14 -33 25 -36 25 -4 0 -32
34 -62 76 -43 60 -73 88 -140 133 -47 31 -96 62 -110 69 -38 20 -52 33 -90 84
-29 39 -48 52 -111 77 -42 17 -81 31 -87 31 -7 0 -12 4 -12 8 0 16 -70 81
-121 112 -32 19 -72 55 -97 89 -33 44 -58 65 -110 91 -37 18 -94 52 -128 74
-125 85 -116 82 -167 58 -39 -19 -44 -19 -77 -4 -22 10 -67 16 -123 17 l-88 1
-26 -48z m286 -455 c22 -38 42 -84 46 -103 3 -19 7 -42 9 -50 6 -38 22 -69 62
-124 25 -32 57 -86 73 -120 33 -71 38 -76 111 -101 51 -17 106 -44 186 -91 17
-10 41 -32 53 -49 11 -17 58 -68 102 -114 62 -62 97 -89 148 -112 109 -50 113
-52 201 -103 47 -27 94 -59 106 -70 11 -12 39 -38 62 -58 l41 -38 114 0 c97 0
125 4 178 24 l64 24 75 -40 c72 -40 130 -75 140 -88 3 -4 30 -26 60 -49 30
-24 102 -89 160 -145 58 -56 110 -105 117 -109 6 -4 56 -23 109 -42 82 -30
163 -71 184 -96 3 -3 28 -21 55 -39 28 -19 55 -39 62 -45 34 -29 43 -35 49
-35 4 0 15 -7 24 -15 15 -14 22 -9 74 46 32 33 63 58 70 56 6 -3 48 -15 91
-27 154 -41 197 -60 239 -101 23 -21 45 -39 49 -39 5 0 23 -7 40 -14 18 -8 73
-31 122 -52 50 -20 113 -49 140 -64 28 -15 93 -49 145 -76 52 -27 117 -69 143
-94 27 -25 68 -62 90 -84 23 -21 65 -59 92 -85 28 -26 75 -67 104 -92 30 -24
69 -57 85 -72 27 -25 176 -122 216 -140 8 -4 29 -16 45 -27 17 -11 43 -27 58
-35 25 -14 166 -111 192 -132 27 -22 93 -61 113 -67 13 -4 67 -28 120 -53 l97
-46 -55 -14 c-75 -19 -92 -23 -115 -27 -17 -4 -41 -9 -140 -32 -11 -3 -31 -7
-45 -10 -14 -3 -54 -12 -90 -20 -36 -9 -76 -17 -90 -19 -14 -2 -45 -8 -70 -14
-25 -5 -61 -13 -80 -16 -19 -3 -80 -15 -135 -25 -135 -26 -153 -29 -205 -35
-25 -3 -57 -8 -72 -11 -15 -3 -49 -7 -75 -9 -27 -3 -73 -7 -103 -9 -155 -15
-223 -18 -425 -17 -247 2 -306 4 -323 15 -7 4 -12 2 -12 -4 0 -6 -3 -9 -8 -6
-4 2 -39 7 -77 10 -95 9 -160 15 -220 22 -27 4 -61 8 -75 9 -43 5 -180 24
-215 31 -11 2 -38 6 -60 9 -22 2 -51 7 -65 10 -32 7 -54 11 -110 20 -25 4 -54
9 -65 11 -84 18 -124 26 -150 29 -16 3 -45 9 -64 15 -19 5 -38 7 -42 4 -5 -3
-9 -1 -9 4 0 5 -8 9 -17 8 -19 -1 -103 18 -278 61 -55 14 -113 27 -128 30 -33
5 -286 73 -347 93 -14 5 -59 18 -100 30 -41 12 -101 31 -133 42 -31 10 -66 21
-77 23 -11 2 -24 6 -28 9 -5 3 -19 7 -33 10 -30 6 -267 84 -379 125 -231 86
-677 219 -850 255 -14 3 -56 12 -95 21 -38 9 -79 17 -90 19 -11 2 -33 6 -50 9
-16 4 -41 9 -55 11 -14 3 -34 7 -45 9 -20 5 -134 23 -190 31 -16 2 -30 5 -30
6 0 1 -20 3 -45 6 -25 2 -60 6 -77 9 -18 3 -57 7 -85 11 -29 3 -69 8 -88 10
-290 37 -874 36 -1225 -2 -38 -4 -85 -8 -102 -8 -18 -1 -33 -3 -33 -6 0 -3
-17 -6 -37 -7 -21 -1 -65 -6 -98 -12 -33 -5 -78 -13 -100 -16 -23 -3 -52 -8
-65 -10 -14 -3 -38 -7 -55 -10 -16 -2 -64 -11 -105 -20 -41 -9 -84 -18 -95
-20 -183 -33 -669 -172 -875 -252 -143 -55 -210 -80 -222 -82 -4 -1 -46 -19
-93 -41 -47 -22 -87 -40 -90 -40 -8 -1 -96 -40 -160 -70 -33 -15 -78 -36 -100
-45 -22 -10 -43 -20 -47 -22 -4 -2 -5 3 -2 11 3 9 9 16 14 16 4 0 16 8 27 18
27 22 111 93 134 112 9 8 32 26 49 40 18 14 37 30 44 35 6 6 38 30 71 55 33
25 62 47 65 50 11 12 346 256 365 266 56 30 161 88 170 94 6 4 51 21 100 38
200 71 484 234 685 394 47 38 90 68 97 68 6 0 13 3 15 8 2 4 36 27 77 52 61
36 85 45 128 47 29 1 57 4 63 8 5 3 10 3 10 -2 0 -4 24 -7 52 -7 40 1 69 11
119 38 64 34 99 45 99 29 0 -5 20 -21 45 -36 39 -25 55 -29 119 -29 l75 0 88
89 c83 83 147 151 236 251 35 39 64 64 173 147 21 16 47 37 56 46 12 12 33 16
79 15 l63 -1 1 -83 0 -83 -57 -87 c-32 -48 -58 -90 -58 -94 0 -5 10 -25 23
-46 12 -21 27 -46 33 -57 6 -11 52 -37 103 -58 l92 -38 87 57 c48 32 120 76
160 99 67 38 76 47 105 106 l32 64 85 28 c47 15 87 32 88 37 2 6 10 10 17 10
7 0 15 4 17 8 9 22 142 104 196 121 64 20 80 15 86 -22 1 -8 7 -21 13 -28 6
-8 13 -23 17 -34 3 -11 25 -40 47 -65 23 -25 53 -57 66 -71 l24 -26 -20 -54
c-12 -30 -21 -59 -21 -64 0 -6 29 -28 64 -49 74 -43 67 -44 176 35 l67 50 -1
63 -2 63 -67 68 c-37 37 -67 71 -68 74 -2 14 -8 41 -34 136 -14 55 -26 105
-27 110 0 20 11 101 20 141 9 41 9 41 -34 67 -24 15 -44 33 -44 42 0 8 3 15 8
15 4 0 27 30 52 68 25 37 48 69 52 70 5 2 8 10 8 17 0 8 6 20 13 27 53 54 127
220 161 363 13 50 21 64 49 78 18 9 48 26 67 37 19 11 38 20 42 20 4 0 25 -30
47 -67z"/>
</g>
</svg>
